<svg width="1280" height="720" viewBox="0 0 1280 720" fill="none" xmlns="http://www.w3.org/2000/svg">
<g clip-path="url(#clip0_3_17)">
<rect width="1280" height="720" fill="#131313"/>
<path d="M1415.5 110.203C1415.5 114.38 1414.45 118.313 1412.61 121.753L1413.05 121.99C1410.72 126.342 1407.14 129.924 1402.79 132.255L1402.55 131.814C1399.11 133.657 1395.18 134.703 1391 134.703H1377.01V135.203H1360.22V134.703H1332.23V135.203H1315.44V134.703H1287.46V135.203H1270.67V134.703H1256.68C1252.33 134.703 1248.24 135.79 1244.66 137.709L1244.89 138.15C1240.54 140.481 1236.96 144.063 1234.63 148.416L1234.19 148.179C1232.27 151.762 1231.18 155.856 1231.18 160.203V175.127H1231.68V193.037H1231.18V222.887H1231.68V240.797H1231.18V270.646H1231.68V288.556H1231.18V318.406H1231.68V336.316H1231.18V366.165H1231.68V384.075H1231.18V399C1231.18 403.178 1230.13 407.11 1228.29 410.551L1228.73 410.787C1226.4 415.139 1222.82 418.721 1218.47 421.052L1218.23 420.612C1214.79 422.455 1210.86 423.5 1206.68 423.5H1191.64V424H1173.6V423.5H1143.53V424H1125.48V423.5H1095.41V424H1077.37V423.5H1047.29V424H1029.25V423.5H999.177V424H981.133V423.5H951.06V424H933.017V423.5H902.944V424H884.9V423.5H854.828V424H836.784V423.5H806.711V424H788.667V423.5H758.595V424H740.551V423.5H710.478V424H692.434V423.5H662.362V424H644.318V423.5H614.245V424H596.201V423.5H566.129V424H548.085V423.5H518.012V424H499.968V423.5H469.896V424H451.852V423.5H421.779V424H403.735V423.5H373.663V424H355.619V423.5H325.546V424H307.502V423.5H277.429V424H259.386V423.5H229.313V424H211.269V423.5H181.196V424H163.153V423.5H133.08V424H115.036V423.5H100C95.8221 423.5 91.8899 422.455 88.4491 420.612L88.213 421.052C83.8607 418.721 80.2787 415.139 77.9475 410.787L78.3883 410.551C76.5453 407.11 75.5 403.178 75.5 399V384.008H75V366.017H75.5V336.032H75V318.041H75.5V288.056H75V270.065H75.5V240.081H75V222.09H75.5V192.105H75V174.114H75.5V144.129H75V126.138H75.5V96.1534H75V78.1625H75.5V48.1777H75V30.1869H75.5V0.202042H75V-17.7888H75.5V-47.7736H75V-65.7645H75.5V-95.7493H75V-113.74H75.5V-128.733C75.5 -132.895 76.5376 -136.814 78.3685 -140.246L77.9273 -140.482C80.2427 -144.822 83.8013 -148.401 88.1294 -150.74L88.3671 -150.3C91.7895 -152.15 95.7029 -153.209 99.8647 -153.232L114.807 -153.315L114.804 -153.815L132.735 -153.914L132.737 -153.414L162.622 -153.579L162.619 -154.079L180.549 -154.178L180.552 -153.678L210.436 -153.843L210.434 -154.343L228.364 -154.442L228.367 -153.942L258.251 -154.107L258.249 -154.607L276.179 -154.706L276.182 -154.206L306.066 -154.371L306.063 -154.871L323.994 -154.97L323.997 -154.47L353.881 -154.635L353.878 -155.135L371.809 -155.234L371.811 -154.734L401.696 -154.899L401.693 -155.399L419.624 -155.498L419.626 -154.998L449.51 -155.163L449.508 -155.663L467.438 -155.762L467.441 -155.262L497.325 -155.427L497.323 -155.927L515.253 -156.026L515.256 -155.526L545.14 -155.691L545.137 -156.191L563.068 -156.29L563.071 -155.79L592.955 -155.955L592.952 -156.455L610.883 -156.554L610.885 -156.054L640.77 -156.219L640.767 -156.719L658.698 -156.818L658.7 -156.318L688.585 -156.483L688.582 -156.983L706.512 -157.082L706.515 -156.582L736.399 -156.747L736.397 -157.247L754.327 -157.346L754.33 -156.846L784.214 -157.011L784.211 -157.511L802.142 -157.61L802.145 -157.11L832.029 -157.275L832.026 -157.775L849.957 -157.874L849.96 -157.374L879.844 -157.539L879.841 -158.039L897.772 -158.138L897.774 -157.638L927.659 -157.803L927.656 -158.303L945.586 -158.402L945.589 -157.902L975.473 -158.067L975.471 -158.567L993.401 -158.666L993.404 -158.166L1023.29 -158.331L1023.29 -158.831L1041.22 -158.93L1041.22 -158.43L1071.1 -158.595L1071.1 -159.095L1089.03 -159.194L1089.03 -158.694L1118.92 -158.859L1118.92 -159.359L1136.85 -159.458L1136.85 -158.959L1166.73 -159.124L1166.73 -159.624L1184.66 -159.723L1184.66 -159.223L1214.55 -159.388L1214.54 -159.888L1232.48 -159.987L1232.48 -159.487L1262.36 -159.652L1262.36 -160.152L1280.29 -160.251L1280.29 -159.751L1310.18 -159.916L1310.17 -160.416L1328.1 -160.515L1328.11 -160.015L1357.99 -160.18L1357.99 -160.68L1375.92 -160.779L1375.92 -160.279L1390.86 -160.361C1395.06 -160.384 1399.01 -159.353 1402.47 -157.517L1402.7 -157.959C1407.08 -155.636 1410.69 -152.05 1413.03 -147.687L1412.59 -147.45C1414.45 -144.001 1415.5 -140.055 1415.5 -135.862V-120.483H1416V-102.028H1415.5V-71.2697H1416V-52.8149H1415.5V-22.0569H1416V-3.60213H1415.5V27.1559H1416V45.6107H1415.5V76.3687H1416V94.8235H1415.5V110.203Z" stroke="#CCCCCC" stroke-dasharray="30 18"/>
<circle cx="75" cy="138" r="17.5" fill="#201E1E" stroke="#CCCCCC"/>
<path d="M74.9995 144.857V138M74.9995 138V131.143M74.9995 138H81.8566M74.9995 138H68.1423" stroke="#CCCCCC" stroke-width="2" stroke-linecap="round"/>
<path d="M-53.5 607.456C-53.5 603.278 -52.4547 599.346 -50.6117 595.905L-51.0525 595.669C-48.7213 591.316 -45.1393 587.734 -40.787 585.403L-40.5509 585.844C-37.1101 584.001 -33.1779 582.956 -29 582.956H-15.7958V582.456H0.0494385V582.956H26.4579V582.456H42.303V582.956H68.7115V582.456H84.5566V582.956H97.761C102.108 582.956 106.202 581.868 109.784 579.949L109.548 579.508C113.9 577.177 117.482 573.595 119.813 569.243L120.254 569.479C122.173 565.896 123.261 561.802 123.261 557.456V540.353H122.761V519.83H123.261V485.625H122.761V465.102H123.261V448C123.261 443.822 124.306 439.89 126.149 436.449L125.708 436.213C128.04 431.861 131.622 428.279 135.974 425.948L136.21 426.388C139.651 424.545 143.583 423.5 147.761 423.5H162.807V423H180.862V423.5H210.954V423H229.009V423.5H259.101V423H277.157V423.5H307.249V423H325.304V423.5H355.396V423H373.451V423.5H403.543V423H421.598V423.5H451.69V423H469.746V423.5H499.838V423H517.893V423.5H547.985V423H566.04V423.5H596.132V423H614.187V423.5H644.279V423H662.334V423.5H692.426V423H710.482V423.5H740.574V423H758.629V423.5H788.721V423H806.776V423.5H836.868V423H854.923V423.5H885.016V423H903.071V423.5H933.163V423H951.218V423.5H981.31V423H999.365V423.5H1029.46V423H1047.51V423.5H1077.6V423H1095.66V423.5H1125.75V423H1143.81V423.5H1173.9V423H1191.95V423.5H1207C1211.18 423.5 1215.11 424.545 1218.55 426.388L1218.79 425.948C1223.14 428.279 1226.72 431.861 1229.05 436.213L1228.61 436.449C1230.45 439.89 1231.5 443.822 1231.5 448V462.01H1232V478.822H1231.5V506.842H1232V523.654H1231.5V551.673H1232V568.485H1231.5V596.505H1232V613.317H1231.5V641.337H1232V658.149H1231.5V686.169H1232V702.981H1231.5V716.991C1231.5 721.159 1230.46 725.084 1228.62 728.52L1229.06 728.756C1226.74 733.102 1223.17 736.681 1218.84 739.017L1218.6 738.577C1215.17 740.424 1211.25 741.477 1207.08 741.491L1192.22 741.538L1192.22 742.038L1174.4 742.095L1174.4 741.595L1144.68 741.689L1144.69 742.189L1126.86 742.246L1126.86 741.746L1097.15 741.84L1097.15 742.34L1079.32 742.397L1079.32 741.897L1049.61 741.991L1049.61 742.491L1031.78 742.548L1031.78 742.048L1002.07 742.142L1002.07 742.642L984.243 742.699L984.241 742.199L954.53 742.294L954.531 742.794L936.704 742.85L936.703 742.35L906.991 742.445L906.993 742.945L889.166 743.001L889.164 742.501L859.453 742.596L859.454 743.096L841.628 743.153L841.626 742.653L811.914 742.747L811.916 743.247L794.089 743.304L794.087 742.804L764.376 742.898L764.378 743.398L746.551 743.455L746.549 742.955L716.837 743.049L716.839 743.549L699.012 743.606L699.01 743.106L669.299 743.2L669.3 743.7L651.474 743.757L651.472 743.257L621.76 743.352L621.762 743.852L603.935 743.908L603.934 743.408L574.222 743.503L574.224 744.003L556.397 744.059L556.395 743.559L526.684 743.654L526.685 744.154L508.858 744.21L508.857 743.71L479.145 743.805L479.147 744.305L461.32 744.362L461.318 743.862L431.607 743.956L431.608 744.456L413.781 744.513L413.78 744.013L384.068 744.107L384.07 744.607L366.243 744.664L366.241 744.164L336.53 744.258L336.531 744.758L318.704 744.815L318.703 744.315L288.991 744.41L288.993 744.91L271.166 744.966L271.164 744.466L241.453 744.561L241.454 745.061L223.628 745.117L223.626 744.617L193.914 744.712L193.916 745.212L176.089 745.268L176.088 744.768L146.376 744.863L146.378 745.363L128.551 745.42L128.549 744.92L98.8375 745.014L98.8391 745.514L81.0122 745.571L81.0106 745.071L51.2991 745.165L51.3007 745.665L33.4738 745.722L33.4722 745.222L3.76062 745.316L3.76221 745.816L-14.0648 745.873L-14.0664 745.373L-28.9221 745.42C-33.1091 745.434 -37.0522 744.396 -40.5037 742.557L-40.7388 742.999C-45.1051 740.672 -48.7004 737.088 -51.0408 732.729L-50.6003 732.493C-52.4502 729.047 -53.5 725.107 -53.5 720.92V703.192H-54V681.917H-53.5V646.459H-54V625.185H-53.5V607.456Z" stroke="#CCCCCC" stroke-dasharray="30 18"/>
<circle cx="1232" cy="606" r="16.5" fill="#201E1E" stroke="#CCCCCC"/>
<path d="M1232 614V606M1232 606V598M1232 606H1240M1232 606H1224" stroke="#CCCCCC" stroke-width="2" stroke-linecap="round"/>
</g>
<defs>
<clipPath id="clip0_3_17">
<rect width="1280" height="720" fill="white"/>
</clipPath>
</defs>
</svg>
