<svg width="1280" height="720" viewBox="0 0 1280 720" fill="none" xmlns="http://www.w3.org/2000/svg">
<g opacity="0.2" clip-path="url(#clip0_3_17)">
<path d="M1415.5 110.203C1415.5 114.38 1414.45 118.313 1412.61 121.753L1413.05 121.99C1410.72 126.342 1407.14 129.924 1402.79 132.255L1402.55 131.814C1399.11 133.657 1395.18 134.703 1391 134.703H1377.01V135.203H1360.22V134.703H1332.23V135.203H1315.44V134.703H1287.46V135.203H1270.67V134.703H1256.68C1252.33 134.703 1248.24 135.79 1244.66 137.709L1244.89 138.15C1240.54 140.481 1236.96 144.063 1234.63 148.416L1234.19 148.179C1232.27 151.762 1231.18 155.856 1231.18 160.203V175.127H1231.68V193.037H1231.18V222.887H1231.68V240.797H1231.18V270.646H1231.68V288.556H1231.18V318.406H1231.68V336.316H1231.18V366.165H1231.68V384.075H1231.18V399C1231.18 403.178 1230.13 407.11 1228.29 410.551L1228.73 410.787C1226.4 415.139 1222.82 418.721 1218.47 421.052L1218.23 420.612C1214.79 422.455 1210.86 423.5 1206.68 423.5H1191.64V424H1173.6V423.5H1143.53V424H1125.48V423.5H1095.41V424H1077.37V423.5H1047.29V424H1029.25V423.5H999.177V424H981.133V423.5H951.06V424H933.017V423.5H902.944V424H884.9V423.5H854.828V424H836.784V423.5H806.711V424H788.667V423.5H758.595V424H740.551V423.5H710.478V424H692.434V423.5H662.362V424H644.318V423.5H614.245V424H596.201V423.5H566.129V424H548.085V423.5H518.012V424H499.968V423.5H469.896V424H451.852V423.5H421.779V424H403.735V423.5H373.663V424H355.619V423.5H325.546V424H307.502V423.5H277.429V424H259.386V423.5H229.313V424H211.269V423.5H181.196V424H163.153V423.5H133.08V424H115.036V423.5H100C95.8221 423.5 91.8899 422.455 88.4491 420.612L88.213 421.052C83.8607 418.721 80.2787 415.139 77.9475 410.787L78.3883 410.551C76.5453 407.11 75.5 403.178 75.5 399V384.008H75V366.017H75.5V336.032H75V318.041H75.5V288.056H75V270.065H75.5V240.081H75V222.09H75.5V192.105H75V174.114H75.5V144.129H75V126.138H75.5V96.1534H75V78.1625H75.5V48.1777H75V30.1869H75.5V0.202042H75V-17.7888H75.5V-47.7736H75V-65.7645H75.5V-95.7493H75V-113.74H75.5V-128.733C75.5 -132.895 76.5376 -136.814 78.3685 -140.246L77.9273 -140.482C80.2427 -144.822 83.8013 -148.401 88.1294 -150.74L88.3671 -150.3C91.7895 -152.15 95.7029 -153.209 99.8647 -153.232L114.807 -153.315L114.804 -153.815L132.735 -153.914L132.737 -153.414L162.622 -153.579L162.619 -154.079L180.549 -154.178L180.552 -153.678L210.436 -153.843L210.434 -154.343L228.364 -154.442L228.367 -153.942L258.251 -154.107L258.249 -154.607L276.179 -154.706L276.182 -154.206L306.066 -154.371L306.063 -154.871L323.994 -154.97L323.997 -154.47L353.881 -154.635L353.878 -155.135L371.809 -155.234L371.811 -154.734L401.696 -154.899L401.693 -155.399L419.624 -155.498L419.626 -154.998L449.51 -155.163L449.508 -155.663L467.438 -155.762L467.441 -155.262L497.325 -155.427L497.323 -155.927L515.253 -156.026L515.256 -155.526L545.14 -155.691L545.137 -156.191L563.068 -156.29L563.071 -155.79L592.955 -155.955L592.952 -156.455L610.883 -156.554L610.885 -156.054L640.77 -156.219L640.767 -156.719L658.698 -156.818L658.7 -156.318L688.585 -156.483L688.582 -156.983L706.512 -157.082L706.515 -156.582L736.399 -156.747L736.397 -157.247L754.327 -157.346L754.33 -156.846L784.214 -157.011L784.211 -157.511L802.142 -157.61L802.145 -157.11L832.029 -157.275L832.026 -157.775L849.957 -157.874L849.96 -157.374L879.844 -157.539L879.841 -158.039L897.772 -158.138L897.774 -157.638L927.659 -157.803L927.656 -158.303L945.586 -158.402L945.589 -157.902L975.473 -158.067L975.471 -158.567L993.401 -158.666L993.404 -158.166L1023.29 -158.331L1023.29 -158.831L1041.22 -158.93L1041.22 -158.43L1071.1 -158.595L1071.1 -159.095L1089.03 -159.194L1089.03 -158.694L1118.92 -158.859L1118.92 -159.359L1136.85 -159.458L1136.85 -158.959L1166.73 -159.124L1166.73 -159.624L1184.66 -159.723L1184.66 -159.223L1214.55 -159.388L1214.54 -159.888L1232.48 -159.987L1232.48 -159.487L1262.36 -159.652L1262.36 -160.152L1280.29 -160.251L1280.29 -159.751L1310.18 -159.916L1310.17 -160.416L1328.1 -160.515L1328.11 -160.015L1357.99 -160.18L1357.99 -160.68L1375.92 -160.779L1375.92 -160.279L1390.86 -160.361C1395.06 -160.384 1399.01 -159.353 1402.47 -157.517L1402.7 -157.959C1407.08 -155.636 1410.69 -152.05 1413.03 -147.687L1412.59 -147.45C1414.45 -144.001 1415.5 -140.055 1415.5 -135.862V-120.483H1416V-102.028H1415.5V-71.2697H1416V-52.8149H1415.5V-22.0569H1416V-3.60213H1415.5V27.1559H1416V45.6107H1415.5V76.3687H1416V94.8235H1415.5V110.203Z" stroke="#CCCCCC" stroke-dasharray="30 18"/>
<circle cx="75" cy="138" r="17.5" fill="#201E1E" stroke="#CCCCCC"/>
<path d="M74.9995 144.857V138M74.9995 138V131.143M74.9995 138H81.8566M74.9995 138H68.1423" stroke="#CCCCCC" stroke-width="2" stroke-linecap="round"/>
<path d="M-63.5 632.456C-63.5 628.278 -62.4547 624.346 -60.6117 620.905L-61.0525 620.669C-58.7213 616.316 -55.1393 612.734 -50.787 610.403L-50.5509 610.844C-47.1101 609.001 -43.1779 607.956 -39 607.956H-25.7958V607.456H-9.95056V607.956H16.4579V607.456H32.303V607.956H58.7115V607.456H74.5566V607.956H87.761C92.1075 607.956 96.2015 606.868 99.7841 604.949L99.548 604.508C103.9 602.177 107.482 598.595 109.813 594.243L110.254 594.479C112.173 590.896 113.261 586.802 113.261 582.456V565.353H112.761V544.83H113.261V510.625H112.761V490.102H113.261V473C113.261 468.822 114.306 464.89 116.149 461.449L115.708 461.213C118.04 456.861 121.622 453.279 125.974 450.948L126.21 451.388C129.651 449.545 133.583 448.5 137.761 448.5H152.807V448H170.862V448.5H200.954V448H219.009V448.5H249.101V448H267.157V448.5H297.249V448H315.304V448.5H345.396V448H363.451V448.5H393.543V448H411.598V448.5H441.69V448H459.746V448.5H489.838V448H507.893V448.5H537.985V448H556.04V448.5H586.132V448H604.187V448.5H634.279V448H652.334V448.5H682.426V448H700.482V448.5H730.574V448H748.629V448.5H778.721V448H796.776V448.5H826.868V448H844.923V448.5H875.016V448H893.071V448.5H923.163V448H941.218V448.5H971.31V448H989.365V448.5H1019.46V448H1037.51V448.5H1067.6V448H1085.66V448.5H1115.75V448H1133.81V448.5H1163.9V448H1181.95V448.5H1197C1201.18 448.5 1205.11 449.545 1208.55 451.388L1208.79 450.948C1213.14 453.279 1216.72 456.861 1219.05 461.213L1218.61 461.449C1220.45 464.89 1221.5 468.822 1221.5 473V487.01H1222V503.822H1221.5V531.842H1222V548.654H1221.5V576.673H1222V593.485H1221.5V621.505H1222V638.317H1221.5V666.337H1222V683.149H1221.5V711.169H1222V727.981H1221.5V741.991C1221.5 746.159 1220.46 750.084 1218.62 753.52L1219.06 753.756C1216.74 758.102 1213.17 761.681 1208.84 764.017L1208.6 763.577C1205.17 765.424 1201.25 766.477 1197.08 766.491L1182.22 766.538L1182.22 767.038L1164.4 767.095L1164.4 766.595L1134.68 766.689L1134.69 767.189L1116.86 767.246L1116.86 766.746L1087.15 766.84L1087.15 767.34L1069.32 767.397L1069.32 766.897L1039.61 766.991L1039.61 767.491L1021.78 767.548L1021.78 767.048L992.068 767.142L992.07 767.642L974.243 767.699L974.241 767.199L944.53 767.294L944.531 767.794L926.704 767.85L926.703 767.35L896.991 767.445L896.993 767.945L879.166 768.001L879.164 767.501L849.453 767.596L849.454 768.096L831.628 768.153L831.626 767.653L801.914 767.747L801.916 768.247L784.089 768.304L784.087 767.804L754.376 767.898L754.378 768.398L736.551 768.455L736.549 767.955L706.837 768.049L706.839 768.549L689.012 768.606L689.01 768.106L659.299 768.2L659.3 768.7L641.474 768.757L641.472 768.257L611.76 768.352L611.762 768.852L593.935 768.908L593.934 768.408L564.222 768.503L564.224 769.003L546.397 769.059L546.395 768.559L516.684 768.654L516.685 769.154L498.858 769.21L498.857 768.71L469.145 768.805L469.147 769.305L451.32 769.362L451.318 768.862L421.607 768.956L421.608 769.456L403.781 769.513L403.78 769.013L374.068 769.107L374.07 769.607L356.243 769.664L356.241 769.164L326.53 769.258L326.531 769.758L308.704 769.815L308.703 769.315L278.991 769.41L278.993 769.91L261.166 769.966L261.164 769.466L231.453 769.561L231.454 770.061L213.628 770.117L213.626 769.617L183.914 769.712L183.916 770.212L166.089 770.268L166.088 769.768L136.376 769.863L136.378 770.363L118.551 770.42L118.549 769.92L88.8375 770.014L88.8391 770.514L71.0122 770.571L71.0106 770.071L41.2991 770.165L41.3007 770.665L23.4738 770.722L23.4722 770.222L-6.23938 770.316L-6.23779 770.816L-24.0648 770.873L-24.0664 770.373L-38.9221 770.42C-43.1091 770.434 -47.0522 769.396 -50.5037 767.557L-50.7388 767.999C-55.1051 765.672 -58.7004 762.088 -61.0408 757.729L-60.6003 757.493C-62.4502 754.047 -63.5 750.107 -63.5 745.92V728.192H-64V706.917H-63.5V671.459H-64V650.185H-63.5V632.456Z" stroke="#CCCCCC" stroke-dasharray="30 18"/>
<circle cx="1222" cy="631" r="16.5" fill="#201E1E" stroke="#CCCCCC"/>
<path d="M1222 639V631M1222 631V623M1222 631H1230M1222 631H1214" stroke="#CCCCCC" stroke-width="2" stroke-linecap="round"/>
</g>
<defs>
<clipPath id="clip0_3_17">
<rect width="1280" height="720" fill="white"/>
</clipPath>
</defs>
</svg>
